<svg width="258.48125px" height="101.6px" xmlns="http://www.w3.org/2000/svg" viewBox="120.759375 24.200000000000003 258.48125 101.6" style="background: rgba(0, 0, 0, 0);" preserveAspectRatio="xMidYMid"><defs><filter id="editing-hole" x="-100%" y="-100%" width="300%" height="300%"><feFlood flood-color="#988e8e" result="black"></feFlood><feMorphology operator="dilate" radius="2" in="SourceGraphic" result="erode"></feMorphology><feGaussianBlur in="erode" stdDeviation="4" result="blur"></feGaussianBlur><feOffset in="blur" dx="2" dy="2" result="offset"></feOffset><feComposite operator="atop" in="offset" in2="black" result="merge"></feComposite><feComposite operator="in" in="merge" in2="SourceGraphic" result="inner-shadow"></feComposite></filter></defs><g filter="url(#editing-hole)"><g transform="translate(164.5538308620453, 93.61000061035156)"><path d="M-0.26 0L-0.26-2.58L-0.26-2.58Q1.69-2.58 2.68-3.18L2.68-3.18L2.68-3.18Q3.68-3.77 4.22-5.13L4.22-5.13L16.88-35.16L20.88-35.16L32.46-5.13L32.46-5.13Q33.09-3.63 33.87-3.11L33.87-3.11L33.87-3.11Q34.64-2.58 36.89-2.58L36.89-2.58L36.89 0L22.43 0L22.43-2.58L22.43-2.58Q25.52-2.58 26.10-3L26.10-3L26.10-3Q26.67-3.42 26.64-3.91L26.64-3.91L26.64-3.91Q26.60-4.41 26.32-5.13L26.32-5.13L24.21-11.02L10.59-11.02L8.18-5.13L8.18-5.13Q7.64-3.73 8.51-3.15L8.51-3.15L8.51-3.15Q9.38-2.58 12.56-2.58L12.56-2.58L12.56 0L-0.26 0ZM11.65-13.59L23.30-13.59L17.86-28.78L11.65-13.59ZM52.01-20.65L52.01-20.65L52.01-20.65Q50.81-21.84 48.09-21.84L48.09-21.84L48.09-21.84Q45.38-21.84 44.41-19.88L44.41-19.88L44.41-19.88Q44.16-19.31 44.16-18.60L44.16-18.60L44.16-18.60Q44.16-17.88 44.72-17.21L44.72-17.21L44.72-17.21Q45.28-16.55 46.17-15.95L46.17-15.95L46.17-15.95Q47.06-15.35 48.18-14.79L48.18-14.79L48.18-14.79Q49.29-14.23 50.48-13.57L50.48-13.57L50.48-13.57Q51.68-12.91 53.02-12.19L53.02-12.19L53.02-12.19Q57.91-9.52 57.91-6.27L57.91-6.27L57.91-6.27Q57.91-3.02 55.38-1.28L55.38-1.28L55.38-1.28Q52.85 0.47 48.67 0.47L48.67 0.47L48.67 0.47Q44.48 0.47 41.77-1.03L41.77-1.03L41.77-1.03Q39.05-2.53 39.05-4.90L39.05-4.90L39.05-4.90Q39.05-6.19 39.90-7.08L39.90-7.08L39.90-7.08Q40.76-7.97 42.08-7.97L42.08-7.97L42.08-7.97Q43.41-7.97 44.27-7.14L44.27-7.14L44.27-7.14Q45.14-6.30 45.14-5.16L45.14-5.16L45.14-5.16Q45.14-4.01 44.34-3.21L44.34-3.21L44.34-3.21Q46.22-2.13 49.00-2.13L49.00-2.13L49.00-2.13Q51.77-2.13 52.90-3.42L52.90-3.42L52.90-3.42Q53.37-3.94 53.37-4.76L53.37-4.76L53.37-4.76Q53.37-6.70 49.05-8.81L49.05-8.81L49.05-8.81Q46.05-10.29 44.55-11.13L44.55-11.13L44.55-11.13Q39.75-13.85 39.75-17.70L39.75-17.70L39.75-17.70Q39.75-20.65 42.20-22.43L42.20-22.43L42.20-22.43Q44.65-24.21 48.45-24.21L48.45-24.21L48.45-24.21Q52.24-24.21 54.83-22.79L54.83-22.79L54.83-22.79Q57.42-21.38 57.42-19.13L57.42-19.13L57.42-19.13Q57.42-17.81 56.79-17.18L56.79-17.18L56.79-17.18Q55.69-16.08 54.68-16.08L54.68-16.08L54.68-16.08Q53.04-16.08 52.21-16.91L52.21-16.91L52.21-16.91Q51.38-17.74 51.38-18.82L51.38-18.82L51.38-18.82Q51.38-19.90 52.01-20.65ZM76.34-20.72L76.34-20.72L76.34-20.72Q72.49-20.72 70.10-18.33L70.10-18.33L70.10-5.04L70.10-5.04Q70.10-3.59 70.57-3.21L70.57-3.21L70.57-3.21Q71.39-2.58 73.66-2.58L73.66-2.58L73.66 0L61.76 0L61.76-2.58L61.76-2.58Q63.77-2.58 64.29-2.99L64.29-2.99L64.29-2.99Q64.80-3.40 64.92-3.87L64.92-3.87L64.92-3.87Q65.04-4.34 65.04-5.04L65.04-5.04L65.04-30.47L65.04-30.47Q65.04-32.16 64.75-32.67L64.75-32.67L64.75-32.67Q64.45-33.19 63.14-33.19L63.14-33.19L61.71-33.19L61.71-35.77L61.71-35.77Q63.91-35.77 65.17-36.11L65.17-36.11L65.17-36.11Q66.42-36.45 66.95-36.60L66.95-36.60L66.95-36.60Q67.48-36.75 68.09-36.75L68.09-36.75L68.09-36.75Q69.33-36.75 69.71-36.04L69.71-36.04L69.71-36.04Q70.10-35.32 70.10-33.75L70.10-33.75L70.10-21.09L70.10-21.09Q72.52-23.20 75.91-23.98L75.91-23.98L75.91-23.98Q77.02-24.23 78.07-24.23L78.07-24.23L78.07-24.23Q85.66-24.23 85.66-14.16L85.66-14.16L85.66-5.09L85.66-5.09Q85.66-3.54 86.11-3.06L86.11-3.06L86.11-3.06Q86.55-2.58 88.55-2.58L88.55-2.58L88.55 0L77.46 0L77.46-2.58L77.46-2.58Q79.59-2.58 80.03-3.01L80.03-3.01L80.03-3.01Q80.46-3.45 80.53-3.91L80.53-3.91L80.53-3.91Q80.60-4.38 80.60-5.09L80.60-5.09L80.60-13.85L80.60-13.85Q80.60-17.11 79.99-18.33L79.99-18.33L79.99-18.33Q78.80-20.72 76.34-20.72ZM97.80-28.57L97.80-28.57L97.80-28.57Q96.28-28.57 95.21-29.59L95.21-29.59L95.21-29.59Q94.15-30.61 94.15-32.09L94.15-32.09L94.15-32.09Q94.15-33.59 95.23-34.63L95.23-34.63L95.23-34.63Q96.30-35.67 97.80-35.67L97.80-35.67L97.80-35.67Q99.30-35.67 100.38-34.63L100.38-34.63L100.38-34.63Q101.46-33.59 101.46-32.09L101.46-32.09L101.46-32.09Q101.46-30.61 100.39-29.59L100.39-29.59L100.39-29.59Q99.33-28.57 97.80-28.57ZM91.83 0L91.83-2.58L91.83-2.58Q94.01-2.58 94.56-2.99L94.56-2.99L94.56-2.99Q95.11-3.40 95.23-3.87L95.23-3.87L95.23-3.87Q95.34-4.34 95.34-5.04L95.34-5.04L95.34-17.95L95.34-17.95Q95.34-19.64 95.05-20.16L95.05-20.16L95.05-20.16Q94.76-20.67 93.47-20.67L93.47-20.67L91.78-20.67L91.78-23.25L91.78-23.25Q94.08-23.25 95.39-23.59L95.39-23.59L95.39-23.59Q96.70-23.93 97.24-24.08L97.24-24.08L97.24-24.08Q97.78-24.23 98.41-24.23L98.41-24.23L98.41-24.23Q99.63-24.23 100.02-23.52L100.02-23.52L100.02-23.52Q100.41-22.80 100.41-21.23L100.41-21.23L100.41-5.04L100.41-5.04Q100.41-3.56 100.88-3.19L100.88-3.19L100.88-3.19Q101.67-2.58 103.90-2.58L103.90-2.58L103.90 0L91.83 0ZM120.56-20.65L120.56-20.65L120.56-20.65Q119.37-21.84 116.65-21.84L116.65-21.84L116.65-21.84Q113.93-21.84 112.97-19.88L112.97-19.88L112.97-19.88Q112.71-19.31 112.71-18.60L112.71-18.60L112.71-18.60Q112.71-17.88 113.27-17.21L113.27-17.21L113.27-17.21Q113.84-16.55 114.73-15.95L114.73-15.95L114.73-15.95Q115.62-15.35 116.73-14.79L116.73-14.79L116.73-14.79Q117.84-14.23 119.04-13.57L119.04-13.57L119.04-13.57Q120.23-12.91 121.57-12.19L121.57-12.19L121.57-12.19Q126.47-9.52 126.47-6.27L126.47-6.27L126.47-6.27Q126.47-3.02 123.94-1.28L123.94-1.28L123.94-1.28Q121.41 0.47 117.22 0.47L117.22 0.47L117.22 0.47Q113.04 0.47 110.32-1.03L110.32-1.03L110.32-1.03Q107.60-2.53 107.60-4.90L107.60-4.90L107.60-4.90Q107.60-6.19 108.46-7.08L108.46-7.08L108.46-7.08Q109.31-7.97 110.64-7.97L110.64-7.97L110.64-7.97Q111.96-7.97 112.83-7.14L112.83-7.14L112.83-7.14Q113.70-6.30 113.70-5.16L113.70-5.16L113.70-5.16Q113.70-4.01 112.90-3.21L112.90-3.21L112.90-3.21Q114.77-2.13 117.55-2.13L117.55-2.13L117.55-2.13Q120.33-2.13 121.45-3.42L121.45-3.42L121.45-3.42Q121.92-3.94 121.92-4.76L121.92-4.76L121.92-4.76Q121.92-6.70 117.61-8.81L117.61-8.81L117.61-8.81Q114.61-10.29 113.11-11.13L113.11-11.13L113.11-11.13Q108.30-13.85 108.30-17.70L108.30-17.70L108.30-17.70Q108.30-20.65 110.75-22.43L110.75-22.43L110.75-22.43Q113.20-24.21 117-24.21L117-24.21L117-24.21Q120.80-24.21 123.39-22.79L123.39-22.79L123.39-22.79Q125.98-21.38 125.98-19.13L125.98-19.13L125.98-19.13Q125.98-17.81 125.34-17.18L125.34-17.18L125.34-17.18Q124.24-16.08 123.23-16.08L123.23-16.08L123.23-16.08Q121.59-16.08 120.76-16.91L120.76-16.91L120.76-16.91Q119.93-17.74 119.93-18.82L119.93-18.82L119.93-18.82Q119.93-19.90 120.56-20.65ZM144.89-20.72L144.89-20.72L144.89-20.72Q141.05-20.72 138.66-18.33L138.66-18.33L138.66-5.04L138.66-5.04Q138.66-3.59 139.13-3.21L139.13-3.21L139.13-3.21Q139.95-2.58 142.22-2.58L142.22-2.58L142.22 0L130.31 0L130.31-2.58L130.31-2.58Q132.33-2.58 132.84-2.99L132.84-2.99L132.84-2.99Q133.36-3.40 133.48-3.87L133.48-3.87L133.48-3.87Q133.59-4.34 133.59-5.04L133.59-5.04L133.59-30.47L133.59-30.47Q133.59-32.16 133.30-32.67L133.30-32.67L133.30-32.67Q133.01-33.19 131.70-33.19L131.70-33.19L130.27-33.19L130.27-35.77L130.27-35.77Q132.47-35.77 133.72-36.11L133.72-36.11L133.72-36.11Q134.98-36.45 135.50-36.60L135.50-36.60L135.50-36.60Q136.03-36.75 136.64-36.75L136.64-36.75L136.64-36.75Q137.88-36.75 138.27-36.04L138.27-36.04L138.27-36.04Q138.66-35.32 138.66-33.75L138.66-33.75L138.66-21.09L138.66-21.09Q141.07-23.20 144.47-23.98L144.47-23.98L144.47-23.98Q145.57-24.23 146.63-24.23L146.63-24.23L146.63-24.23Q154.22-24.23 154.22-14.16L154.22-14.16L154.22-5.09L154.22-5.09Q154.22-3.54 154.66-3.06L154.66-3.06L154.66-3.06Q155.11-2.58 157.10-2.58L157.10-2.58L157.10 0L146.02 0L146.02-2.58L146.02-2.58Q148.15-2.58 148.58-3.01L148.58-3.01L148.58-3.01Q149.02-3.45 149.09-3.91L149.09-3.91L149.09-3.91Q149.16-4.38 149.16-5.09L149.16-5.09L149.16-13.85L149.16-13.85Q149.16-17.11 148.55-18.33L148.55-18.33L148.55-18.33Q147.35-20.72 144.89-20.72ZM162.96-3.05L162.96-3.05L162.96-3.05Q162.96-4.55 164.04-5.59L164.04-5.59L164.04-5.59Q165.12-6.63 166.62-6.63L166.62-6.63L166.62-6.63Q168.12-6.63 169.20-5.59L169.20-5.59L169.20-5.59Q170.27-4.55 170.27-3.05L170.27-3.05L170.27-3.05Q170.27-1.57 169.21-0.55L169.21-0.55L169.21-0.55Q168.14 0.47 166.62 0.47L166.62 0.47L166.62 0.47Q165.09 0.47 164.03-0.55L164.03-0.55L164.03-0.55Q162.96-1.57 162.96-3.05Z" fill="#ffffff"></path></g></g><style>text {
  font-size: 64px;
  font-family: Arial Black;
  dominant-baseline: central;
  text-anchor: middle;
}</style></svg>